<svg width="64" height="59" viewBox="0 0 64 59" fill="none" xmlns="http://www.w3.org/2000/svg">
<path d="M60.3578 34.9919C60.3578 36.1781 59.8901 37.251 59.134 38.0276C58.3766 38.8042 57.332 39.2846 56.1784 39.2846H7.82174C5.51442 39.2846 3.64233 37.3632 3.64233 34.9919C3.64233 34.3567 3.77613 33.7549 4.01653 33.2132C4.22572 32.7422 4.51416 32.3178 4.86614 31.9562C5.62351 31.1796 6.66808 30.6992 7.82174 30.6992H56.1785C57.8687 30.6992 59.3251 31.7293 59.9837 33.2132C60.224 33.7549 60.3578 34.3567 60.3578 34.9919Z" fill="#884D00"/>
<path d="M60.0976 33.1713C59.8875 33.6333 59.5967 34.0518 59.2445 34.4062C58.4841 35.1699 57.4352 35.6423 56.2769 35.6423H7.72317C6.02743 35.6423 4.56517 34.6293 3.90247 33.1715C4.11251 32.7083 4.402 32.291 4.75554 31.9353C5.51599 31.1716 6.56482 30.6992 7.72317 30.6992H56.2769C57.9739 30.6991 59.4361 31.7122 60.0976 33.1713Z" fill="#AA6100"/>
<path d="M64 42.5306C64 47.9162 61.5033 51.9179 57.4673 54.5724C53.43 57.2281 47.8536 58.5365 41.6942 58.5365H22.3056C9.98713 58.5365 0 53.3018 0 42.5306C0 41.9303 0.149625 41.3612 0.42025 40.8493C0.64925 40.4128 0.965375 40.0191 1.34925 39.6838C2.182 38.9549 3.33475 38.504 4.60588 38.504H59.3942C61.2509 38.504 62.8512 39.4655 63.5799 40.8493C63.8504 41.3613 64 41.9304 64 42.5306Z" fill="#FFA733"/>
<path d="M63.4796 40.8691C62.6132 44.4853 60.4421 47.3023 57.3865 49.3357C53.362 52.0138 47.8033 53.3333 41.6635 53.3333H22.3363C11.5326 53.3333 2.52925 49.248 0.520264 40.8691C0.748538 40.4289 1.06366 40.0318 1.44632 39.6937C2.27643 38.9587 3.42553 38.504 4.69262 38.504H59.3074C61.1581 38.504 62.7533 39.4737 63.4796 40.8691Z" fill="#FFB655"/>
<path d="M49.691 29.1382L38.8887 39.9091C38.6174 40.1783 38.3278 40.4164 38.0216 40.6222C35.7344 42.1662 32.601 41.9294 30.5747 39.9091L19.7723 29.1382H49.691Z" fill="#EEBF00"/>
<path d="M49.6911 29.1382L38.9335 39.8745C38.6634 40.1428 38.375 40.3802 38.07 40.5853C37.2492 40.3067 36.4788 39.8409 35.8246 39.1869L25.7561 29.1382H49.6911Z" fill="#FFD422"/>
<path d="M62.6992 30.562C62.6992 31.1158 62.6058 31.6824 62.4034 32.235C61.6106 34.4008 59.488 35.2417 57.8338 34.0451L55.8499 32.611C54.4656 31.6088 52.6997 32.0191 51.698 33.5764L51.6137 33.7073C50.6522 35.2036 48.9759 35.6482 47.6071 34.7717L43.1647 31.9275C42.1397 31.272 40.911 31.3432 39.9406 32.1168L36.3804 34.9521C35.358 35.7663 34.0554 35.8006 33.0057 35.0397L28.9447 32.0927C27.9067 31.3394 26.6197 31.3635 25.6012 32.1561L21.9035 35.0309C20.9109 35.802 19.6628 35.8464 18.6365 35.149L13.8489 31.892C12.9069 31.2518 11.7717 31.234 10.8168 31.845L6.351 34.7044C3.37719 35.0792 1.93061 32.9413 1.93061 32.9413C1.21836 31.7295 1.14693 30.2928 1.53235 29.0873C1.99032 27.6468 3.09972 26.5366 4.54243 26.5366H59.4596C60.8738 26.5366 62.0038 27.6304 62.4684 29.0809C62.6188 29.5458 62.6992 30.0476 62.6992 30.562Z" fill="#6DC82A"/>
<path d="M62.439 29.1234C62.4195 29.188 62.3975 29.2512 62.3742 29.3159C61.5822 31.519 59.4616 32.3739 57.809 31.1574L55.827 29.6981C54.4439 28.6805 52.6798 29.0976 51.6791 30.6796L51.5948 30.8139C50.6342 32.3351 48.9595 32.7871 47.592 31.896L43.1538 29.0046C42.1298 28.337 40.9022 28.4105 39.9327 29.197L36.376 32.0794C35.3545 32.9072 34.0532 32.9408 33.0045 32.1672L28.9473 29.1712C27.9103 28.4055 26.6245 28.4313 25.607 29.2357L21.9127 32.1594C20.9211 32.942 19.6741 32.9884 18.6488 32.2795L13.8658 28.9684C12.9247 28.3163 11.7905 28.2981 10.8365 28.9206L6.37498 31.8262C3.404 32.2084 1.9588 30.0337 1.9588 30.0337C1.79155 29.7432 1.65942 29.4397 1.56091 29.1298C2.01845 27.6654 3.12679 26.5366 4.56813 26.5366H59.4331C60.8458 26.5367 61.9748 27.6486 62.439 29.1234Z" fill="#7ED63E"/>
<path d="M61.6576 23.8814C61.6667 24.3147 61.6095 24.7323 61.4977 25.1266C60.9944 26.8806 59.3793 28.1636 57.4653 28.1636C49.9493 28.1636 29.9304 27.9944 26.9111 28.0945C26.8435 28.0972 26.7759 28.0998 26.7096 28.101C22.897 28.2454 22.0283 28.857 22.0283 30.8907V38.3321C22.0283 38.7147 21.8735 39.0621 21.6227 39.3132C21.3717 39.5644 21.0258 39.7191 20.6435 39.7191C19.8775 39.7191 19.2573 40.3398 19.2573 41.1062V44.3474C19.2573 44.6766 19.2183 44.9955 19.1428 45.3025C18.7151 47.0748 17.1168 48.3902 15.1976 48.3902H15.0949C12.9128 48.3902 11.147 46.6167 11.1535 44.4333L11.1717 38.5664C11.1729 38.1163 11.3563 37.7076 11.6515 37.4136C11.948 37.1182 12.355 36.936 12.8063 36.936C13.7088 36.936 14.4409 36.2035 14.4409 35.3004V30.8907C14.4409 29.384 13.2212 28.1636 11.7154 28.1636H6.61525C4.32017 28.1636 2.38913 26.3511 2.34228 24.0545C2.29543 21.6981 4.19137 19.7723 6.53592 19.7723H57.3821C59.6784 19.7723 61.6121 21.5848 61.6576 23.8814Z" fill="#FF3501"/>
<path d="M61.6576 23.8759C61.6667 24.3086 61.6095 24.7257 61.4977 25.1194C53.5412 25.1117 34.5294 24.9544 31.5934 25.0505C27.6092 25.1817 26.7108 25.7782 26.7108 27.8443V28.0899C22.8983 28.2341 22.0297 28.8448 22.0297 30.8758V38.3073C22.0297 38.6893 21.8749 39.0362 21.624 39.287C21.3731 39.5378 21.0272 39.6924 20.6449 39.6924C19.879 39.6924 19.2587 40.3122 19.2587 41.0776V44.3145C19.2587 44.6432 19.2197 44.9617 19.1443 45.2683C17.264 44.9655 15.8297 43.3321 15.8362 41.3674L15.8545 35.5096C15.8557 35.0586 16.0391 34.6519 16.3343 34.3583C16.6308 34.0633 17.0378 33.8814 17.489 33.8814C18.3915 33.8814 19.1235 33.1498 19.1235 32.248V27.8442C19.1235 26.3395 17.9039 25.1207 16.3982 25.1207H11.2982C9.00318 25.1207 7.0722 23.3106 7.02536 21.0171C7.01624 20.5844 7.07345 20.1673 7.18664 19.7723H57.3823C59.6785 19.7723 61.6121 21.5824 61.6576 23.8759Z" fill="#FF5023"/>
<path d="M37.7235 15.3496L28.4617 24.638C27.5336 25.5684 26.4393 26.2307 25.2736 26.6224C22.3997 27.5958 19.0974 26.9335 16.8102 24.638L7.54468 15.3496H37.7235Z" fill="#EEBF00"/>
<path d="M37.7235 15.3496L28.434 24.5673C27.5031 25.4906 26.4055 26.1479 25.2364 26.5366C24.0684 26.1479 22.971 25.4906 22.0413 24.5673L12.7479 15.3496H37.7235Z" fill="#FFD422"/>
<path d="M64 16.6036C64 16.6721 63.9974 16.7392 63.9935 16.8062C63.9427 17.6721 63.568 18.4529 62.9878 19.0285C62.3619 19.6493 61.498 20.0325 60.543 20.0325H3.457C1.54825 20.0324 0 18.4967 0 16.6036C0 12.4947 1.92037 9.40134 4.8205 7.07455C7.17412 5.18529 10.1744 3.80052 13.3153 2.78498C22.1028 -0.0527476 32 6.89648e-05 32 6.89648e-05C32 6.89648e-05 64 -0.171523 64 16.6036Z" fill="#FFA733"/>
<path d="M64 16.7067C64 16.7756 63.9974 16.8431 63.9935 16.9106H10.4815C8.57283 16.9106 7.02441 15.3654 7.02441 13.4604C7.02441 9.32597 8.94483 6.21339 11.845 3.87227C12.3108 3.49564 12.8013 3.13997 13.3139 2.80227C22.1018 -0.0530751 31.9993 6.9393e-05 31.9993 6.9393e-05C31.9993 6.9393e-05 64 -0.172588 64 16.7067Z" fill="#FFB655"/>
<path d="M49.2 6.00725C49.7548 6.5945 49.7286 7.52037 49.1415 8.07537C48.5542 8.63025 47.6283 8.604 47.0735 8.01687C46.5186 7.42975 45.4972 5.39512 46.0845 4.84012C46.6717 4.28512 48.6451 5.41987 49.2 6.00725Z" fill="#FFF5CC"/>
<path d="M41.4456 13.2371C41.7353 13.9914 41.3586 14.8376 40.6044 15.1273C39.8501 15.4169 39.0039 15.0403 38.7143 14.286C38.4246 13.5318 38.2545 11.2616 39.0086 10.972C39.7629 10.6825 41.156 12.4829 41.4456 13.2371Z" fill="#FFF5CC"/>
<path d="M33.4629 7.2203C33.4629 8.0283 32.8079 8.68318 32 8.68318C31.192 8.68318 30.5371 8.02818 30.5371 7.2203C30.5371 6.4123 31.1921 4.23218 32 4.23218C32.808 4.23205 33.4629 6.4123 33.4629 7.2203Z" fill="#FFF5CC"/>
<path d="M25.4192 14.1539C25.2172 14.9361 24.4192 15.4065 23.637 15.2045C22.8547 15.0025 22.3844 14.2045 22.5864 13.4222C22.7884 12.64 23.9677 10.6929 24.7501 10.8949C25.5324 11.0969 25.6212 13.3717 25.4192 14.1539Z" fill="#FFF5CC"/>
<path d="M17.3711 7.78168C17.0189 8.50868 16.144 8.81268 15.4167 8.46043C14.6897 8.10818 14.3857 7.2333 14.738 6.50605C15.0902 5.77905 16.6301 4.1023 17.3574 4.45468C18.0845 4.80705 17.7234 7.05468 17.3711 7.78168Z" fill="#FFF5CC"/>
</svg>
